<svg xmlns="http://www.w3.org/2000/svg" xmlns:svg="http://www.w3.org/2000/svg" xmlns:xlink="http://www.w3.org/1999/xlink" version="1.0" height="505.0000476837158pt" width="850.0000095367432pt" viewBox="345 497 858.0000095367432 511.0000476837158" ><defs><style type="text/css">
            @font-face {
                font-family: 'noto_regular';
                src: url('https://app.creately.com/diagram/assets/fonts/noto/noto-regular.woff') format('woff'),
                     url('https://app.creately.com/diagram/assets/fonts/noto/noto-regular.woff2') format('woff2');
                font-weight: normal;
                font-style: normal;
            }
        p {
            margin: 0;
        }
        </style></defs><defs><style>
            span{ display: inline-block; }
        </style></defs><g id="eirz2wpv00"><g transform="translate(350 500)"><rect x="0" y="0" width="200.00000953674316" height="505.0000047683716" fill="rgba(85,112,125,1)" stroke="#55707d" stroke-width="1.5" stroke-linecap="round" stroke-linejoin="round"/></g></g><g id="2f65k29atc"><g transform="translate(550 500)"><rect x="0" y="0" width="450" height="505.0000476837158" fill="rgba(213,221,224,1)" stroke="#d5dde0" stroke-width="1.5" stroke-linecap="round" stroke-linejoin="round"/></g></g><g id="1exi3p5cfg"><g transform="translate(1000 500)"><rect x="0" y="0" width="200.00000953674316" height="505.0000047683716" fill="rgba(85,112,125,1)" stroke="#55707d" stroke-width="1.5" stroke-linecap="round" stroke-linejoin="round"/></g></g><g id="1rjaq7gza9"><g transform="translate(575 525)"><rect x="0" y="0" width="400" height="40.000000298023224" fill="rgba(68,87,98,1)" stroke="#445762" stroke-width="1.5" stroke-linecap="round" stroke-linejoin="round"/></g><g transform="translate(713, 535.0000001490116) rotate(0, 62, 10)" width="124" height="20"><text text-decoration="none" x="12.5" fill="rgb(235, 235, 235)" font-weight="bold" font-size="13pt" font-family="Lato"  y="16">Project&#160;</text><text text-decoration="none" x="71.5" fill="rgb(235, 235, 235)" font-weight="bold" font-size="13pt" font-family="Lato"  y="16">Title&#160;</text><text text-decoration="none" x="111.5" fill="#4b4b4b" font-size="10pt" font-family="noto_regular"  y="16"></text></g></g><g id="1ni00bxixl"><g transform="translate(605 580)"><rect x="0" y="0" width="345" height="64.9999988079071" fill="rgba(85,112,125,1)" stroke="#55707d" stroke-width="1.5" stroke-linecap="round" stroke-linejoin="round"/></g><g transform="translate(723.5, 602.9999994039536) rotate(0, 54, 9.5)" width="108" height="19"><text text-decoration="none" x="11.5" fill="rgb(255, 255, 255)" font-weight="bold" font-size="12pt" font-family="Lato"  y="15">Description&#160;</text><text text-decoration="none" x="96.5" fill="#4b4b4b" font-size="10pt" font-family="noto_regular"  y="15"></text></g></g><g id="qc8lxssxby"><g transform="translate(575 680)"><rect x="0" y="0" width="192.85715103149414" height="54.99999940395355" fill="rgba(37,160,149,1)" stroke="#25a095" stroke-width="1.5" stroke-linecap="round" stroke-linejoin="round"/></g><g transform="translate(642.4285755157471, 697.9999997019768) rotate(0, 29, 9.5)" width="58" height="19"><text text-decoration="none" x="4.5" fill="rgb(255, 255, 255)" font-size="10pt" font-family="Lato"  y="15">Sub&#160;</text><text text-decoration="none" x="29.5" fill="rgb(255, 255, 255)" font-size="10pt" font-family="Lato"  y="15">title&#160;</text><text text-decoration="none" x="53.5" fill="#4b4b4b" font-size="10pt" font-family="noto_regular"  y="15"></text></g></g><g id="7o6q7y23gr"><g transform="translate(575 745.55)"><rect x="0" y="0" width="192.85715103149414" height="235.0000262260437" fill="rgba(43,188,178,1)" stroke="#2bbcb2" stroke-width="1.5" stroke-linecap="round" stroke-linejoin="round"/></g><g transform="translate(607.9285755157471, 853.5500131130218) rotate(0, 63.5, 9.5)" width="127" height="19"><text text-decoration="none" x="6" fill="rgb(255, 255, 255)" font-size="10pt" font-family="Lato"  y="15">Data/charts/graphs&#160;</text><text text-decoration="none" x="121" fill="#4b4b4b" font-size="10pt" font-family="noto_regular"  y="15"></text></g></g><g id="1hjnc9va3c"><g transform="translate(782.25 745.55)"><rect x="0" y="0" width="192.85715103149414" height="235.0000262260437" fill="rgba(130,184,68,1)" stroke="#82b844" stroke-width="1.5" stroke-linecap="round" stroke-linejoin="round"/></g><g transform="translate(815.1785755157471, 853.5500131130218) rotate(0, 63.5, 9.5)" width="127" height="19"><text text-decoration="none" x="4.5" fill="rgb(255, 255, 255)" font-size="10pt" font-family="Lato"  y="15">Data/charts/graphs&#160;&#160;</text><text text-decoration="none" x="122.5" fill="#4b4b4b" font-size="10pt" font-family="noto_regular"  y="15"></text></g></g><g id="cpdgfiidn6"><g transform="translate(370 525)"><rect x="0" y="0" width="160.00593185424805" height="54.99999940395355" fill="rgba(43,188,178,1)" stroke="#2bbcb2" stroke-width="1.5" stroke-linecap="round" stroke-linejoin="round"/></g></g><g id="2darqw3bxw"><g transform="translate(370 590)"><rect x="0" y="0" width="160.00593185424805" height="145.00000476837158" fill="rgba(43,188,178,1)" stroke="#2bbcb2" stroke-width="1.5" stroke-linecap="round" stroke-linejoin="round"/></g></g><g id="3bsv56wreg"><g transform="translate(370 765)"><rect x="0" y="0" width="160.00593185424805" height="54.99999940395355" fill="rgba(43,188,178,1)" stroke="#2bbcb2" stroke-width="1.5" stroke-linecap="round" stroke-linejoin="round"/></g></g><g id="1aj68tdqpq"><g transform="translate(370 830)"><rect x="0" y="0" width="160.00593185424805" height="145.00000476837158" fill="rgba(43,188,178,1)" stroke="#2bbcb2" stroke-width="1.5" stroke-linecap="round" stroke-linejoin="round"/></g></g><g id="9xr2fszsh5"><g transform="translate(1020 525)"><rect x="0" y="0" width="160.00593185424805" height="54.99999940395355" fill="rgba(130,184,68,1)" stroke="#82b844" stroke-width="1.5" stroke-linecap="round" stroke-linejoin="round"/></g></g><g id="1h70t1zo9p"><g transform="translate(1020 590)"><rect x="0" y="0" width="160.00593185424805" height="145.00000476837158" fill="rgba(130,184,68,1)" stroke="#82b844" stroke-width="1.5" stroke-linecap="round" stroke-linejoin="round"/></g></g><g id="2csy753vfd"><g transform="translate(1020 765)"><rect x="0" y="0" width="160.00593185424805" height="54.99999940395355" fill="rgba(130,184,68,1)" stroke="#82b844" stroke-width="1.5" stroke-linecap="round" stroke-linejoin="round"/></g></g><g id="5b2i02sdz2"><g transform="translate(1020 830)"><rect x="0" y="0" width="160.00593185424805" height="145.00000476837158" fill="rgba(130,184,68,1)" stroke="#82b844" stroke-width="1.5" stroke-linecap="round" stroke-linejoin="round"/></g></g><g id="5ga4y9t1xf"><g><path d="M 575,705 L 560,705 L 560,627.5 L 560,550 L 530,550" fill="none" stroke="#000000" stroke-width="1.5" stroke-linecap="round" stroke-linejoin="round" stroke-dasharray="5 5"/><path d="M 530,550 L 538.695652173913,555.75 L 538.695652173913,544.25 Z" fill="rgb(0,0,0)" stroke="#000000" stroke-width="1.5" stroke-linecap="round" stroke-linejoin="round"/></g></g><g id="abxhqk7zev"><g><path d="M 450,735 L 450,765" fill="none" stroke="#000000" stroke-width="1.5" stroke-linecap="round" stroke-linejoin="round" stroke-dasharray="5 5"/><path d="M 450,765 L 455.75,756.304347826087 L 444.25,756.304347826087 Z" fill="rgb(0,0,0)" stroke="#000000" stroke-width="1.5" stroke-linecap="round" stroke-linejoin="round"/></g></g><g id="2284yuckp2"><g transform="translate(782.1 680)"><rect x="0" y="0" width="192.85715103149414" height="54.99999940395355" fill="rgba(101,154,65,1)" stroke="#659a41" stroke-width="1.5" stroke-linecap="round" stroke-linejoin="round"/></g><g transform="translate(849.5285755157471, 697.9999997019768) rotate(0, 29, 9.5)" width="58" height="19"><text text-decoration="none" x="3" fill="rgb(255, 255, 255)" font-size="10pt" font-family="Lato"  y="15">Sub&#160;</text><text text-decoration="none" x="28" fill="rgb(255, 255, 255)" font-size="10pt" font-family="Lato"  y="15">title&#160;&#160;</text><text text-decoration="none" x="55" fill="#4b4b4b" font-size="10pt" font-family="noto_regular"  y="15"></text></g></g><g id="9hozx0ewn0"><g><path d="M 977.1,705 L 989.9999999999999,705 L 989.9999999999999,627.5 L 989.9999999999999,550 L 1020,550" fill="none" stroke="#000000" stroke-width="1.5" stroke-linecap="round" stroke-linejoin="round" stroke-dasharray="5 5"/><path d="M 1020,550 L 1011.304347826087,544.25 L 1011.304347826087,555.75 Z" fill="rgb(0,0,0)" stroke="#000000" stroke-width="1.5" stroke-linecap="round" stroke-linejoin="round"/></g></g><g id="1i90cdjlej"><g><path d="M 1100,735 L 1100,765" fill="none" stroke="#000000" stroke-width="1.5" stroke-linecap="round" stroke-linejoin="round" stroke-dasharray="5 5"/><path d="M 1100,765 L 1105.75,756.304347826087 L 1094.25,756.304347826087 Z" fill="rgb(0,0,0)" stroke="#000000" stroke-width="1.5" stroke-linecap="round" stroke-linejoin="round"/></g></g><g id="thl3mdt4f3"><g><path d="M 780,645 L 780,662.4999994039536 L 725,662.4999994039536 L 670,662.4999994039536 L 670,680" fill="none" stroke="#000000" stroke-width="1.5" stroke-linecap="round" stroke-linejoin="round" stroke-dasharray="5 5"/><path d="M 670,680 L 675.75,671.304347826087 L 664.25,671.304347826087 Z" fill="rgb(0,0,0)" stroke="#000000" stroke-width="1.5" stroke-linecap="round" stroke-linejoin="round"/></g></g><g id="2hwr5dpw21"><g><path d="M 780,645 L 780,662.4999994039536 L 828.55,662.4999994039536 L 877.1,662.4999994039536 L 877.1,680" fill="none" stroke="#000000" stroke-width="1.5" stroke-linecap="round" stroke-linejoin="round" stroke-dasharray="5 5"/><path d="M 877.1,680 L 882.85,671.304347826087 L 871.35,671.304347826087 Z" fill="rgb(0,0,0)" stroke="#000000" stroke-width="1.5" stroke-linecap="round" stroke-linejoin="round"/></g></g></svg>